<svg width="30" height="30" viewBox="0 0 30 30" fill="none" xmlns="http://www.w3.org/2000/svg">
<rect x="0.25" y="0.25" width="29.5" height="29.5" rx="5.75" stroke="black" stroke-opacity="0.36" stroke-width="0.5"/>
<path d="M7 9.85714C7 9.38376 7.35817 9 7.8 9H22.2C22.6418 9 23 9.38376 23 9.85714C23 10.3305 22.6418 10.7143 22.2 10.7143H7.8C7.35817 10.7143 7 10.3305 7 9.85714Z" fill="black" fill-opacity="0.48"/>
<path d="M7 15C7 14.5266 7.35817 14.1429 7.8 14.1429H17.4C17.8418 14.1429 18.2 14.5266 18.2 15C18.2 15.4734 17.8418 15.8571 17.4 15.8571H7.8C7.35817 15.8571 7 15.4734 7 15Z" fill="black" fill-opacity="0.48"/>
<path d="M7 20.1429C7 19.6695 7.35817 19.2857 7.8 19.2857H17.4C17.8418 19.2857 18.2 19.6695 18.2 20.1429C18.2 20.6162 17.8418 21 17.4 21H7.8C7.35817 21 7 20.6162 7 20.1429Z" fill="black" fill-opacity="0.48"/>
</svg>
